<?xml version="1.0" encoding="UTF-8" standalone="no"?>
<!-- Created with Inkscape (http://www.inkscape.org/) -->

<svg
   xmlns:dc="http://purl.org/dc/elements/1.1/"
   xmlns:cc="http://creativecommons.org/ns#"
   xmlns:rdf="http://www.w3.org/1999/02/22-rdf-syntax-ns#"
   xmlns:svg="http://www.w3.org/2000/svg"
   xmlns="http://www.w3.org/2000/svg"
   xmlns:xlink="http://www.w3.org/1999/xlink"
   id="svg-mayuge"
>
  <style type="text/css">
    .draggable {
      cursor: move;
    }
  </style>
  <defs
     id="defs-mayuge">
    <path
       d="m -16.805624,0.00328114 c -2.13943,-1.92039004 -5.901263,-4.51068004 -8.359628,-5.75620004 -11.148498,-5.6483401 -23.725107,-15.0555901 -31.425581,-23.5062201 -12.732925,-13.97331 -17.074608,-14.66269 -27.996923,-4.4454 -3.499433,3.27355 -6.691544,5.95191 -7.093581,5.95191 -1.45856,0 0.681181,-5.62233 4.141902,-10.88316 4.407415,-6.69995 11.445202,-13.617691 16.453263,-16.172591 9.385649,-4.7882 17.027779,-2.035 38.136341,13.739331 7.016636,5.2435 14.426953,10.38476 16.467369,11.42503 4.03668,2.05801 9.002317,2.407 13.971316,0.98191 2.486327,-0.71307 3.29472805,-0.58743 3.743399,0.58179 0.854522,2.22685 0.661221,27.63955011 -0.220794,29.02707014 -0.41932995,0.65965006 -3.724496,1.50284996 -7.344814,1.87375996 -6.499064,0.6658504 -6.63164,0.6301904 -10.472269,-2.81722996 z"
       id="path-r-mayuge-golgo" stroke="" transform="rotate(0)"/>
        <path
       d="m -18.548127,-3.10816 c -10.041526,-0.977117 -16.188705,-0.77887 -25.069756,-1.152364 -12.186356,-0.537437 -24.846139,0.166155 -36.085837,5.3329563 -4.136598,1.9444084 -7.081099,5.5102536 -10.292955,8.6153286 -3.163334,1.7410301 -1.085554,-4.1928394 -0.613242,-5.7269313 1.813074,-3.07952104 4.771446,-5.5486646 7.492134,-7.7869036 5.525101,-3.664287 11.24346,-7.07557 17.357108,-9.670484 18.603796,-3.157169 29.316705,-3.709724 46.494726,-3.81366 4.421101,0.345735 8.633524,0.95666 13.1436238,2.052232 3.6462692,2.004552 5.59604309,4.468528 6.16836555,8.626414 0.41100368,3.038969 1.86470785,8.5223337 -3.03928415,7.7409249 -3.7221304,0.063418 -7.1009072,-1.33526574 -10.4854442,-2.7532499 -1.657294,-0.591598 -3.345108,-1.107068 -5.069439,-1.464263 z"
       id="path-r-mayuge-tare" />

  </defs>
<!--  
  <g id="r-mayuge" transform="translate(100,100)">
    <use xlink:href="#path-r-mayuge" style="fill:#000000"/>
  </g>
   <g id="l-mayuge" transform="translate(140,100)">
    <use xlink:href="#path-r-mayuge" style="fill:#000000" transform="scale(-0.45,0.45)"/>
  </g>
 -->
</svg>
