<?xml version="1.0" encoding="UTF-8" standalone="no"?>
<!-- Created with Inkscape (http://www.inkscape.org/) -->

<svg
   xmlns:dc="http://purl.org/dc/elements/1.1/"
   xmlns:cc="http://creativecommons.org/ns#"
   xmlns:rdf="http://www.w3.org/1999/02/22-rdf-syntax-ns#"
   xmlns:svg="http://www.w3.org/2000/svg"
   xmlns="http://www.w3.org/2000/svg"
   xmlns:xlink="http://www.w3.org/1999/xlink"
   id="svg-mayuge"
>
  <style type="text/css">
    .draggable {
      cursor: move;
    }
  </style>
  <defs
     id="defs-mayuge">
    <path
       d="m -16.805624,0.00328114 c -2.13943,-1.92039004 -5.901263,-4.51068004 -8.359628,-5.75620004 -11.148498,-5.6483401 -23.725107,-15.0555901 -31.425581,-23.5062201 -12.732925,-13.97331 -17.074608,-14.66269 -27.996923,-4.4454 -3.499433,3.27355 -6.691544,5.95191 -7.093581,5.95191 -1.45856,0 0.681181,-5.62233 4.141902,-10.88316 4.407415,-6.69995 11.445202,-13.617691 16.453263,-16.172591 9.385649,-4.7882 17.027779,-2.035 38.136341,13.739331 7.016636,5.2435 14.426953,10.38476 16.467369,11.42503 4.03668,2.05801 9.002317,2.407 13.971316,0.98191 2.486327,-0.71307 3.29472805,-0.58743 3.743399,0.58179 0.854522,2.22685 0.661221,27.63955011 -0.220794,29.02707014 -0.41932995,0.65965006 -3.724496,1.50284996 -7.344814,1.87375996 -6.499064,0.6658504 -6.63164,0.6301904 -10.472269,-2.81722996 z"
       id="path-r-mayuge-golgo" stroke="" transform="rotate(0)"/>
    <path
       d="M -17.185926,2.933111 C -27.24679,1.354389 -33.390045,1.674696 -42.278488,1.071244 -54.47548,0.20291101 -67.121338,1.3397 -78.258784,9.6876666 c -4.098117,3.1415674 -6.972049,8.9028794 -10.122454,13.9197294 -3.128878,2.812971 -1.416302,-6.23701 -0.72658,-9.252965 1.082341,-4.7327621 4.661636,-8.9649406 7.338028,-12.581249 5.452584,-5.9203637 10.149679,-12.362566 17.165726,-15.624536 14.153843,-6.580545 30.835981,-7.054175 46.419252,-6.161706 4.524186,0.259104 9.7042039,0.413234 13.184238,3.315777 3.9194788,3.269064 6.6414299,8.8427733 6.3390855,13.9376413 C 1.2337987,-0.99510379 0.05048287,0.78175081 -1.4124347,1.7739358 -3.6803882,3.3121151 -4.8993814,2.8232784 -9.5198091,3.1366379 -12.826611,3.3609067 -13.292253,3.2399448 -17.185926,2.933111 z"
       id="path-r-mayuge-tare" />

  </defs>
<!--  
  <g id="r-mayuge" transform="translate(100,100)">
    <use xlink:href="#path-r-mayuge" style="fill:#000000"/>
  </g>
   <g id="l-mayuge" transform="translate(140,100)">
    <use xlink:href="#path-r-mayuge" style="fill:#000000" transform="scale(-0.45,0.45)"/>
  </g>
 -->
</svg>
