<?xml version="1.0" encoding="UTF-8" standalone="no"?>
<!-- Created with Inkscape (http://www.inkscape.org/) -->

<svg
   xmlns:dc="http://purl.org/dc/elements/1.1/"
   xmlns:cc="http://creativecommons.org/ns#"
   xmlns:rdf="http://www.w3.org/1999/02/22-rdf-syntax-ns#"
   xmlns:svg="http://www.w3.org/2000/svg"
   xmlns="http://www.w3.org/2000/svg"
   xmlns:xlink="http://www.w3.org/1999/xlink"
   id="svg-mayuge"
>
  <defs
     id="defs-mayuge">
    <path
       d="m -16.805624,0.00328114 c -2.13943,-1.92039004 -5.901263,-4.51068004 -8.359628,-5.75620004 -11.148498,-5.6483401 -23.725107,-15.0555901 -31.425581,-23.5062201 -12.732925,-13.97331 -17.074608,-14.66269 -27.996923,-4.4454 -3.499433,3.27355 -6.691544,5.95191 -7.093581,5.95191 -1.45856,0 0.681181,-5.62233 4.141902,-10.88316 4.407415,-6.69995 11.445202,-13.617691 16.453263,-16.172591 9.385649,-4.7882 17.027779,-2.035 38.136341,13.739331 7.016636,5.2435 14.426953,10.38476 16.467369,11.42503 4.03668,2.05801 9.002317,2.407 13.971316,0.98191 2.486327,-0.71307 3.29472805,-0.58743 3.743399,0.58179 0.854522,2.22685 0.661221,27.63955011 -0.220794,29.02707014 -0.41932995,0.65965006 -3.724496,1.50284996 -7.344814,1.87375996 -6.499064,0.6658504 -6.63164,0.6301904 -10.472269,-2.81722996 z"
       id="path-r-mayuge" stroke="gray"/>
  </defs>
  
  <g id="r-mayuge" transform="translate(100,100)">
    <use xlink:href="#path-r-mayuge" style="fill:#000000"/>
  </g>
<!--   <g id="l-mayuge" transform="translate(140,100)">
    <use xlink:href="#path-r-mayuge" style="fill:#000000" transform="scale(-0.45,0.45)"/>
  </g>
 --></svg>
