<?xml version="1.0" encoding="UTF-8" standalone="no"?>
<!-- Created with Inkscape (http://www.inkscape.org/) -->

<svg
   xmlns:svg="http://www.w3.org/2000/svg"
   xmlns="http://www.w3.org/2000/svg"
   xmlns:xlink="http://www.w3.org/1999/xlink"
   xmlns:sodipodi="http://sodipodi.sourceforge.net/DTD/sodipodi-0.dtd"
   xmlns:inkscape="http://www.inkscape.org/namespaces/inkscape"
   id="svg3155"
   version="1.1"
   width="929.08014"
   height="564.68469"
   inkscape:version="0.48.2 r9819"
   sodipodi:docname="golgo2.svg">
  <sodipodi:namedview
     pagecolor="#ffffff"
     bordercolor="#666666"
     borderopacity="1"
     objecttolerance="10"
     gridtolerance="10"
     guidetolerance="10"
     inkscape:pageopacity="0"
     inkscape:pageshadow="2"
     inkscape:window-width="1032"
     inkscape:window-height="681"
     id="namedview7"
     showgrid="false"
     inkscape:zoom="0.48"
     inkscape:cx="759.89123"
     inkscape:cy="334.73363"
     inkscape:window-x="0"
     inkscape:window-y="0"
     inkscape:window-maximized="0"
     inkscape:current-layer="layer1"
     fit-margin-top="0"
     fit-margin-left="0"
     fit-margin-right="0"
     fit-margin-bottom="0" />
  <defs
     id="defs3157" />
  <!--   <image id="uploadedImage" xlink:href="../img/3467655413_b61e4fcc22.jpg" width="375" height="500"/>
 -->
  <g
     id="layer1"
     transform="translate(861.89345,167.9015)">
    <use
       xlink:href="#r-mayuge"
       style="fill:#000000;fill-opacity:1;fill-rule:nonzero"
       id="use6"
       x="0"
       y="0"
       width="1"
       height="1" />
    <path
       id="r-mayuge"
       d="m -569.21153,-167.89942 c -85.7987,4.44369 -157.5318,62.90207 -211.4406,125.42664 -32.2367,39.50339 -65.7609,81.26823 -79.646,131.03221 -6.8422,27.9884 9.6319,29.1348 24.5811,8.4447 46.4085,-46.63142 94.6361,-105.51233 165.6827,-109.5885 63.0938,-4.37499 109.0575,48.22656 147.7384,90.64221 42.491,48.35729 85.1138,97.92673 141.6306,130.58833 50.7964,31.2512 103.1878,59.7452 153.2121,92.1624 35.6446,18.3432 78.1629,25.7683 104.7209,58.7997 16.7231,24.7502 40.191597,43.4626 71.475797,35.1896 37.2277,-3.9399 79.2453,-0.7118 112.9283,-8.5444 5.0147,-28.6362 2.5507,-59.3499 5.5149,-87.8546 -4.8267,-57.2099 -5.9405,-114.4732 -2.4209,-171.81024 2.7774,-25.4852 -5.375,-46.35033 -31.5922,-27.6221 -38.8193003,9.7289 -80.6361,12.3758 -119.7906,4.0215 C -154.97523,75.25835 -213.30473,28.10106 -273.15653,-14.13133 c -75.2163,-54.1437 -150.3896,-112.02078 -238.1625,-144.24519 -18.6907,-5.96049 -38.2287,-9.62509 -57.8925,-9.5229 z"
       inkscape:connector-curvature="0" />
  </g>
</svg>
