<?xml version="1.0" encoding="UTF-8" standalone="no"?>
<!-- Created with Inkscape (http://www.inkscape.org/) -->

<svg
   xmlns:dc="http://purl.org/dc/elements/1.1/"
   xmlns:cc="http://creativecommons.org/ns#"
   xmlns:rdf="http://www.w3.org/1999/02/22-rdf-syntax-ns#"
   xmlns:svg="http://www.w3.org/2000/svg"
   xmlns="http://www.w3.org/2000/svg"
   xmlns:xlink="http://www.w3.org/1999/xlink"
   id="svg-mayuge"
>
  <style type="text/css">
    .draggable {
      cursor: move;
    }
  </style>
  <defs
     id="defs-mayuge" >
    <path
       d="m -18.548127,-3.10816 c -10.041526,-0.977117 -16.188705,-0.77887 -25.069756,-1.152364 -12.186356,-0.537437 -24.846139,0.166155 -36.085837,5.3329563 -4.136598,1.9444084 -7.081099,5.5102536 -10.292955,8.6153286 -3.163334,1.7410301 -1.085554,-4.1928394 -0.613242,-5.7269313 1.813074,-3.07952104 4.771446,-5.5486646 7.492134,-7.7869036 5.525101,-3.664287 11.24346,-7.07557 17.357108,-9.670484 18.603796,-3.157169 29.316705,-3.709724 46.494726,-3.81366 4.421101,0.345735 8.633524,0.95666 13.1436238,2.052232 3.6462692,2.004552 5.59604309,4.468528 6.16836555,8.626414 0.41100368,3.038969 1.86470785,8.5223337 -3.03928415,7.7409249 -3.7221304,0.063418 -7.1009072,-1.33526574 -10.4854442,-2.7532499 -1.657294,-0.591598 -3.345108,-1.107068 -5.069439,-1.464263 z"
       id="path-r-mayuge" />
   </defs>
</svg>
